<?xml version="1.0" encoding="utf-8"?>
<!-- Svg Vector Icons : http://www.onlinewebfonts.com/icon -->
<!DOCTYPE svg PUBLIC "-//W3C//DTD SVG 1.1//EN" "http://www.w3.org/Graphics/SVG/1.1/DTD/svg11.dtd">
<svg version="1.1" xmlns="http://www.w3.org/2000/svg" xmlns:xlink="http://www.w3.org/1999/xlink" x="0px" y="0px" viewBox="0 0 1000 1000" enable-background="new 0 0 1000 1000" xml:space="preserve">
<metadata> Svg Vector Icons : http://www.onlinewebfonts.com/icon </metadata>
<g><path d="M833.6,267.8L674.9,109.1l79.4-79.3c26.3-26.3,68.9-26.3,95.2,0l63.5,63.5c26.3,26.3,26.3,69,0,95.3L833.6,267.8L833.6,267.8z M372.5,728.8L213.8,570.1L645.3,142L804,300.7L372.5,728.8L372.5,728.8z M86.3,859L182.9,601l157.4,157.4L86.3,859L86.3,859z M798.4,911.8c21.6,0,39.1,17.5,39.1,39.1c0,21.6-17.5,39.1-39.1,39.1h-692c-21.6,0-39.1-17.5-39.1-39.1c0-21.6,17.5-39.1,39.1-39.1H798.4L798.4,911.8z"/></g>
</svg>