<?xml version="1.0" encoding="UTF-8"?>
<svg width="500" height="500" version="1.1" viewBox="0 0 132.29 132.29" xmlns="http://www.w3.org/2000/svg" xmlns:cc="http://creativecommons.org/ns#" xmlns:dc="http://purl.org/dc/elements/1.1/" xmlns:rdf="http://www.w3.org/1999/02/22-rdf-syntax-ns#">
 <metadata>
  <rdf:RDF>
   <cc:Work rdf:about="">
    <dc:format>image/svg+xml</dc:format>
    <dc:type rdf:resource="http://purl.org/dc/dcmitype/StillImage"/>
    <dc:title/>
   </cc:Work>
  </rdf:RDF>
 </metadata>
 <path d="m0 0v132.29m13.229-132.29v132.29m13.229-132.29v132.29m13.229-132.29v132.29m13.229-132.29v132.29m13.229-132.29v132.29m13.229-132.29v132.29m13.229-132.29v132.29m13.229-132.29v132.29m13.229-132.29v132.29m13.229-132.29v132.29m-132.29-132.29h132.29m-132.29 13.229h132.29m-132.29 13.229h132.29m-132.29 13.229h132.29m-132.29 13.229h132.29m-132.29 13.229h132.29m-132.29 13.229h132.29m-132.29 13.229h132.29m-132.29 13.229h132.29m-132.29 13.229h132.29m-132.29 13.229h132.29" fill="none" stroke="#000" stroke-width=".26458px"/>
</svg>
